#!OML:ASF E:\Style4\Style4.ASF
:FULLY-SPECIFIED
:DEGREES
4308
root -0.0777801 18.1338 -2.50038 11.3934 2.55367 2.14271
lowerback 14.4607 2.25028 -0.237843
upperback 8.11282 2.94103 1.09618
thorax 0.387443 1.44082 0.870909
lowerneck -4.15372 -5.74535 -6.24671
upperneck 6.58441 -7.4863 3.50234
head 3.28574 -3.74727 1.91816
rclavicle 7.15625e-015 -2.22639e-014
rhumerus -38.073 11.5672 -84.0993
rradius 23.0252
rwrist 3.05568
rhand -0.054346 11.2044
rfingers 7.12502
rthumb 25.5383 -17.1038
lclavicle 7.15625e-015 -2.22639e-014
lhumerus -25.4585 -33.484 84.1474
lradius 71.2734
lwrist 30.8252
lhand -14.3127 26.8008
lfingers 7.12502
lthumb 11.8276 56.4467
rfemur -25.7245 0.454562 17.8891
rtibia 26.5895
rfoot -11.616 -16.6621
rtoes -5.73227
lfemur -23.8895 -3.77962 -20.5792
ltibia 22.0977
lfoot -10.7534 12.3098
ltoes -10.7046
4309
root -0.0782259 18.1357 -2.50347 11.391 2.44961 2.1308
lowerback 14.4859 2.25409 -0.275603
upperback 8.10363 2.94101 1.09406
thorax 0.362731 1.4395 0.888611
lowerneck -4.28067 -5.68778 -6.17869
upperneck 6.6125 -7.4045 3.46217
head 3.30933 -3.70544 1.89354
rclavicle -1.39149e-014 -5.56597e-015
rhumerus -38.0964 11.0565 -83.769
rradius 22.596
rwrist 4.10765
rhand 0.636326 11.0794
rfingers 7.12502
rthumb 26.1997 -17.1324
lclavicle -1.39149e-014 -5.56597e-015
lhumerus -25.1101 -34.0226 84.0824
lradius 70.2056
lwrist 30.9754
lhand -14.0385 27.0671
lfingers 7.12502
lthumb 12.092 56.6977
rfemur -25.7198 0.423024 17.9089
rtibia 26.5221
rfoot -11.6038 -16.5167
rtoes -5.4344
lfemur -23.8841 -3.67786 -20.5863
ltibia 22.0895
lfoot -10.677 12.3733
ltoes -11.5955
4310
root -0.0786145 18.1371 -2.50844 11.4007 2.35021 2.09027
lowerback 14.5236 2.23657 -0.29067
upperback 8.06972 2.91609 1.10467
thorax 0.30606 1.42629 0.90919
lowerneck -4.35819 -5.63308 -6.20765
upperneck 6.62967 -7.32608 3.47245
head 3.32782 -3.66648 1.90428
rclavicle 5.4467e-014 -5.56597e-015
rhumerus -38.1052 10.7602 -83.507
rradius 22.2023
rwrist 4.92993
rhand 1.00661 11.0249
rfingers 7.12502
rthumb 26.5542 -17.1338
lclavicle 5.4467e-014 -5.56597e-015
lhumerus -24.802 -34.4167 84.0949
lradius 69.0243
lwrist 30.6757
lhand -13.5099 27.4201
lfingers 7.12502
lthumb 12.6017 57.02
rfemur -25.7534 0.428374 17.9578
rtibia 26.4978
rfoot -11.5951 -16.4124
rtoes -5.52533
lfemur -23.8952 -3.54417 -20.5665
ltibia 22.0795
lfoot -10.6895 12.401
ltoes -11.7173
4311
root -0.0800637 18.1369 -2.51581 11.4695 2.25587 2.09238
lowerback 14.5095 2.22712 -0.369669
upperback 8.02438 2.8942 1.11025
thorax 0.261861 1.41279 0.961656
lowerneck -4.40348 -5.57233 -6.19438
upperneck 6.61766 -7.24156 3.45042
head 3.32576 -3.62468 1.89806
rclavicle 1.19271e-015 9.54166e-015
rhumerus -37.9689 10.1088 -83.0152
rradius 21.7538
rwrist 5.98398
rhand 1.17433 11.1584
rfingers 7.12502
rthumb 26.7147 -16.9759
lclavicle 1.19271e-015 9.54166e-015
lhumerus -24.3324 -34.7287 84.0795
lradius 67.6235
lwrist 29.8242
lhand -12.3481 27.794
lfingers 7.12502
lthumb 13.7215 57.3216
rfemur -25.8988 0.448325 17.9564
rtibia 26.5371
rfoot -11.5499 -16.3366
rtoes -5.40621
lfemur -23.9501 -3.47722 -20.5658
ltibia 22.0064
lfoot -10.6871 12.4257
ltoes -11.2868
4312
root -0.0815277 18.136 -2.52277 11.4758 2.16523 2.17799
lowerback 14.5467 2.23326 -0.515165
upperback 8.0022 2.88414 1.09148
thorax 0.213106 1.40376 1.02309
lowerneck -4.4719 -5.51095 -6.07976
upperneck 6.66248 -7.15875 3.37131
head 3.33974 -3.58304 1.85363
rclavicle -1.90833e-014 1.03368e-014
rhumerus -37.7398 9.23277 -82.4139
rradius 21.2397
rwrist 7.03418
rhand 1.24439 11.1735
rfingers 7.12502
rthumb 26.7817 -16.9505
lclavicle -1.90833e-014 1.03368e-014
lhumerus -23.7809 -35.2717 84.0709
lradius 66.1566
lwrist 28.9967
lhand -11.0211 28.2634
lfingers 7.12502
lthumb 15.0002 57.7001
rfemur -25.9626 0.388129 17.8917
rtibia 26.5823
rfoot -11.4274 -16.2746
rtoes -6.03958
lfemur -23.9454 -3.43931 -20.6607
ltibia 21.947
lfoot -10.6421 12.4625
ltoes -11.495
4313
root -0.0809715 18.1372 -2.52688 11.4092 2.07603 2.29059
lowerback 14.6374 2.21717 -0.657295
upperback 8.00518 2.84466 1.05761
thorax 0.16442 1.38051 1.06982
lowerneck -4.59663 -5.42498 -5.92694
upperneck 6.75636 -7.04173 3.26744
head 3.37672 -3.52407 1.79433
rclavicle -6.75868e-015 2.38542e-015
rhumerus -37.4505 8.47014 -81.882
rradius 20.7144
rwrist 7.91224
rhand 1.25007 11.0986
rfingers 7.12502
rthumb 26.7872 -17.0246
lclavicle -6.75868e-015 2.38542e-015
lhumerus -23.2465 -35.8571 84.0869
lradius 64.7379
lwrist 28.1722
lhand -10.0496 28.727
lfingers 7.12502
lthumb 15.9359 58.0914
rfemur -25.9191 0.402323 17.7719
rtibia 26.6239
rfoot -11.3597 -16.2783
rtoes -6.51802
lfemur -23.8476 -3.43523 -20.7952
ltibia 21.9012
lfoot -10.5958 12.4805
ltoes -11.232
4314
root -0.0809847 18.137 -2.53338 11.3643 2.02852 2.27771
lowerback 14.7451 2.18273 -0.685772
upperback 7.98385 2.79561 1.07561
thorax 0.084055 1.35503 1.10708
lowerneck -4.75613 -5.35719 -5.90138
upperneck 6.89604 -6.94153 3.20709
head 3.44627 -3.47521 1.77033
rclavicle 1.43125e-014 -1.19271e-014
rhumerus -37.0752 7.63134 -81.2472
rradius 20.1487
rwrist 8.83737
rhand 1.33226 11.1681
rfingers 7.12502
rthumb 26.8658 -16.943
lclavicle 1.43125e-014 -1.19271e-014
lhumerus -22.7418 -36.4893 84.1758
lradius 63.3926
lwrist 27.2358
lhand -9.56754 29.0139
lfingers 7.12502
lthumb 16.4001 58.3406
rfemur -25.9255 0.467071 17.7749
rtibia 26.6525
rfoot -11.2907 -16.3124
rtoes -6.83388
lfemur -23.805 -3.37217 -20.7972
ltibia 21.868
lfoot -10.5489 12.4535
ltoes -10.8697
4315
root -0.0821816 18.1355 -2.54073 11.3294 2.00407 2.23229
lowerback 14.8126 2.1382 -0.712543
upperback 7.96832 2.73422 1.11457
thorax 0.0305184 1.32298 1.16882
lowerneck -4.84132 -5.27549 -5.97236
upperneck 6.96951 -6.82442 3.22429
head 3.48654 -3.41824 1.79277
rclavicle -1.31198e-014 -1.03368e-014
rhumerus -36.5989 6.73358 -80.5549
rradius 19.5554
rwrist 9.75983
rhand 1.27308 11.3392
rfingers 7.12502
rthumb 26.8092 -16.7806
lclavicle -1.31198e-014 -1.03368e-014
lhumerus -22.2211 -37.1579 84.2532
lradius 62.1318
lwrist 26.0252
lhand -9.02381 29.6516
lfingers 7.12502
lthumb 16.9235 58.9343
rfemur -25.936 0.441786 17.8371
rtibia 26.6592
rfoot -11.2488 -16.2542
rtoes -7.07981
lfemur -23.7759 -3.32773 -20.754
ltibia 21.8414
lfoot -10.5385 12.4673
ltoes -10.6867
4316
root -0.0825694 18.1354 -2.5489 11.3009 2.01749 2.1812
lowerback 14.8467 2.06188 -0.709705
upperback 7.97751 2.63511 1.14716
thorax 0.0234493 1.27298 1.21476
lowerneck -4.86824 -5.17541 -6.01034
upperneck 6.93741 -6.68688 3.23763
head 3.47576 -3.35049 1.81124
rclavicle -3.49861e-014 -3.97569e-015
rhumerus -35.9932 5.84813 -79.8699
rradius 18.9434
rwrist 10.5937
rhand 1.06186 11.5865
rfingers 7.12502
rthumb 26.6071 -16.5642
lclavicle -3.49861e-014 -3.97569e-015
lhumerus -21.6774 -37.7282 84.2705
lradius 61.0261
lwrist 24.3767
lhand -7.76224 31.077
lfingers 7.12502
lthumb 18.1376 60.2513
rfemur -25.9065 0.416584 17.9027
rtibia 26.6089
rfoot -11.2438 -16.2317
rtoes -7.03903
lfemur -23.7791 -3.31931 -20.6961
ltibia 21.8589
lfoot -10.5288 12.454
ltoes -10.5846
4317
root -0.0806044 18.136 -2.55429 11.2638 2.03348 2.2076
lowerback 14.8474 1.96285 -0.742954
upperback 8.00702 2.5014 1.13673
thorax 0.0570443 1.20539 1.24283
lowerneck -4.90834 -5.07832 -6.01706
upperneck 6.89857 -6.55393 3.23745
head 3.46317 -3.2845 1.81907
rclavicle -4.77083e-015 7.15625e-015
rhumerus -35.26 4.57388 -79.0323
rradius 18.2823
rwrist 11.8306
rhand 0.901275 11.7636
rfingers 7.12502
rthumb 26.4534 -16.4103
lclavicle -4.77083e-015 7.15625e-015
lhumerus -21.0794 -38.1146 84.2016
lradius 60.0674
lwrist 22.2552
lhand -5.94961 32.8017
lfingers 7.12502
lthumb 19.8808 61.8049
rfemur -25.8255 0.326307 17.8804
rtibia 26.5283
rfoot -11.1865 -16.1654
rtoes -7.03822
lfemur -23.7577 -3.3419 -20.7346
ltibia 21.8686
lfoot -10.4709 12.4488
ltoes -10.6187
